<mxfile host="app.diagrams.net" modified="2023-06-14T18:11:58.529Z" agent="Mozilla/5.0 (X11; Linux x86_64) AppleWebKit/537.36 (KHTML, like Gecko) Chrome/114.0.0.0 Safari/537.36" etag="fIsbkeIeIvqNwsKm1roh" version="21.3.6" type="github">
  <diagram name="Page-1" id="80d4a630-b321-0f5e-ff81-c5a36ef4752d">
    <mxGraphModel dx="1687" dy="909" grid="1" gridSize="10" guides="1" tooltips="1" connect="1" arrows="1" fold="1" page="1" pageScale="1" pageWidth="1100" pageHeight="850" background="none" math="0" shadow="0">
      <root>
        <mxCell id="0" />
        <mxCell id="1" parent="0" />
        <mxCell id="8CXosc1XJb84E6_PZDKH-15" value="&lt;font style=&quot;font-size: 14px;&quot;&gt;&lt;b&gt;REDE DE CÃ‚MERAS AEROPORTO&lt;/b&gt;&lt;/font&gt;" style="rounded=1;whiteSpace=wrap;html=1;labelPosition=center;verticalLabelPosition=bottom;align=center;verticalAlign=top;fillColor=#f5f5f5;strokeColor=#666666;gradientColor=#b3b3b3;" vertex="1" parent="1">
          <mxGeometry x="291" y="10" width="440" height="200" as="geometry" />
        </mxCell>
        <mxCell id="8CXosc1XJb84E6_PZDKH-47" style="edgeStyle=orthogonalEdgeStyle;rounded=0;orthogonalLoop=1;jettySize=auto;html=1;exitX=0;exitY=0;exitDx=0;exitDy=0;entryX=1;entryY=0.5;entryDx=0;entryDy=0;" edge="1" parent="1" source="8CXosc1XJb84E6_PZDKH-7" target="8CXosc1XJb84E6_PZDKH-4">
          <mxGeometry relative="1" as="geometry">
            <Array as="points">
              <mxPoint x="899" y="698" />
            </Array>
          </mxGeometry>
        </mxCell>
        <mxCell id="8CXosc1XJb84E6_PZDKH-7" value="&lt;font style=&quot;font-size: 14px;&quot;&gt;&lt;b&gt;REDE HEX360&lt;/b&gt;&lt;/font&gt;" style="ellipse;whiteSpace=wrap;html=1;fillColor=#f8cecc;strokeColor=#b85450;gradientColor=#ea6b66;" vertex="1" parent="1">
          <mxGeometry x="870" y="646" width="200" height="172" as="geometry" />
        </mxCell>
        <mxCell id="8CXosc1XJb84E6_PZDKH-8" style="edgeStyle=orthogonalEdgeStyle;rounded=0;orthogonalLoop=1;jettySize=auto;html=1;exitX=0.5;exitY=0;exitDx=0;exitDy=0;" edge="1" parent="1" target="8CXosc1XJb84E6_PZDKH-2">
          <mxGeometry relative="1" as="geometry">
            <mxPoint x="133" y="646" as="sourcePoint" />
          </mxGeometry>
        </mxCell>
        <mxCell id="8CXosc1XJb84E6_PZDKH-5" value="&lt;b&gt;&lt;font style=&quot;font-size: 14px;&quot;&gt;REDE SEDE PF&lt;/font&gt;&lt;/b&gt;" style="ellipse;whiteSpace=wrap;html=1;fillColor=#fad7ac;strokeColor=#b46504;" vertex="1" parent="1">
          <mxGeometry x="34" y="646" width="200" height="172" as="geometry" />
        </mxCell>
        <mxCell id="8CXosc1XJb84E6_PZDKH-13" style="edgeStyle=orthogonalEdgeStyle;rounded=0;orthogonalLoop=1;jettySize=auto;html=1;exitX=0.5;exitY=0;exitDx=0;exitDy=0;entryX=0.003;entryY=0.734;entryDx=0;entryDy=0;entryPerimeter=0;shape=flexArrow;fillColor=#e51400;strokeColor=#B20000;" edge="1" parent="1" source="8CXosc1XJb84E6_PZDKH-2" target="8CXosc1XJb84E6_PZDKH-11">
          <mxGeometry relative="1" as="geometry">
            <mxPoint x="400" y="510" as="targetPoint" />
          </mxGeometry>
        </mxCell>
        <mxCell id="8CXosc1XJb84E6_PZDKH-2" value="" style="shape=image;verticalLabelPosition=bottom;labelBackgroundColor=#ffffff;verticalAlign=top;aspect=fixed;imageAspect=0;image=data:image/svg+xml,PHN2ZyB4bWxuczpjYz0iaHR0cDovL2NyZWF0aXZlY29tbW9ucy5vcmcvbnMjIiB4bWxuczpkYz0iaHR0cDovL3B1cmwub3JnL2RjL2VsZW1lbnRzLzEuMS8iIHhtbG5zOmlua3NjYXBlPSJodHRwOi8vd3d3Lmlua3NjYXBlLm9yZy9uYW1lc3BhY2VzL2lua3NjYXBlIiB4bWxuczpyZGY9Imh0dHA6Ly93d3cudzMub3JnLzE5OTkvMDIvMjItcmRmLXN5bnRheC1ucyMiIHhtbG5zOnNvZGlwb2RpPSJodHRwOi8vc29kaXBvZGkuc291cmNlZm9yZ2UubmV0L0RURC9zb2RpcG9kaS0wLmR0ZCIgeG1sbnM6c3ZnPSJodHRwOi8vd3d3LnczLm9yZy8yMDAwL3N2ZyIgeG1sbnM9Imh0dHA6Ly93d3cudzMub3JnLzIwMDAvc3ZnIiB4bWxuczp4bGluaz0iaHR0cDovL3d3dy53My5vcmcvMTk5OS94bGluayIgdmVyc2lvbj0iMS4xIiBpZD0ic3ZnMTU3MTE1IiBpbmtzY2FwZTp2ZXJzaW9uPSIwLjkyLjMgKDI0MDU1NDYsIDIwMTgtMDMtMTEpIiBzb2RpcG9kaTpkb2NuYW1lPSJmaXJld2FsbF8xLnN2ZyIgeD0iMHB4IiB5PSIwcHgiIHZpZXdCb3g9IjAgMCA3MS44OCA1Ni40NiIgc3R5bGU9ImVuYWJsZS1iYWNrZ3JvdW5kOm5ldyAwIDAgNzEuODggNTYuNDY7IiB4bWw6c3BhY2U9InByZXNlcnZlIj4mI3hhOzxzb2RpcG9kaTpuYW1lZHZpZXcgYm9yZGVyY29sb3I9IiM2NjY2NjYiIGJvcmRlcm9wYWNpdHk9IjEiIGZpdC1tYXJnaW4tYm90dG9tPSIwIiBmaXQtbWFyZ2luLWxlZnQ9IjAiIGZpdC1tYXJnaW4tcmlnaHQ9IjAiIGZpdC1tYXJnaW4tdG9wPSIwIiBncmlkdG9sZXJhbmNlPSIxMCIgZ3VpZGV0b2xlcmFuY2U9IjEwIiBpZD0ibmFtZWR2aWV3MTU3MTE3IiBpbmtzY2FwZTpjdXJyZW50LWxheWVyPSJzdmcxNTcxMTUiIGlua3NjYXBlOmN4PSI0Ny45MTgyNCIgaW5rc2NhcGU6Y3k9IjM3LjYzNzY0NyIgaW5rc2NhcGU6cGFnZW9wYWNpdHk9IjAiIGlua3NjYXBlOnBhZ2VzaGFkb3c9IjIiIGlua3NjYXBlOndpbmRvdy1oZWlnaHQ9IjEwMTciIGlua3NjYXBlOndpbmRvdy1tYXhpbWl6ZWQ9IjEiIGlua3NjYXBlOndpbmRvdy13aWR0aD0iMTkyMCIgaW5rc2NhcGU6d2luZG93LXg9Ii04IiBpbmtzY2FwZTp3aW5kb3cteT0iLTgiIGlua3NjYXBlOnpvb209IjExLjIxODI2MSIgb2JqZWN0dG9sZXJhbmNlPSIxMCIgcGFnZWNvbG9yPSIjZmZmZmZmIiBzaG93Z3JpZD0iZmFsc2UiPiYjeGE7CTwvc29kaXBvZGk6bmFtZWR2aWV3PiYjeGE7PGcgaWQ9ImcxNTcxMTMiIHRyYW5zZm9ybT0idHJhbnNsYXRlKC0wLjc1LC0wLjc0OTI4MjEyKSI+JiN4YTsJPHRpdGxlIGlkPSJ0aXRsZTE1NzA5OCI+UGFnZS0xPC90aXRsZT4mI3hhOwk8ZyBpZD0iZ3JvdXA5NTM4LTEiIHRyYW5zZm9ybT0idHJhbnNsYXRlKDAuNzUsLTAuNzUpIj4mI3hhOwkJPHRpdGxlIGlkPSJ0aXRsZTE1NzEwMCI+RmlyZXdhbGwgIzE8L3RpdGxlPiYjeGE7CQk8ZyBpZD0ic2hhcGU5NTM5LTIiIHRyYW5zZm9ybT0idHJhbnNsYXRlKDAsLTcuNDg3MDllLTQpIj4mI3hhOwkJCTx0aXRsZSBpZD0idGl0bGUxNTcxMDIiPnBhdGgxNTI5MS4zMjI1MjwvdGl0bGU+JiN4YTsJCQk8cGF0aCBpZD0icGF0aDE1NzEwNCIgaW5rc2NhcGU6Y29ubmVjdG9yLWN1cnZhdHVyZT0iMCIgc3R5bGU9ImZpbGw6IzQzNTY3MDsiIGQ9Ik0yMS45MSwxNy42MmMtMC41MSwwLjUxLTAuNzYsMS4xMS0wLjc2LDEuODEgICAgIHY1LjEzYzAsMC43LDAuMjUsMS4zLDAuNzYsMS44MWMwLjUxLDAuNSwxLjExLDAuNzYsMS44LDAuNzZoMTEuMzRjMC4yNy0yLjY0LDIuNjMtNC41Nyw1LjI4LTQuM2MwLjk1LDAuMSwxLjg0LDAuNDcsMi41NywxLjA4ICAgICBjMC44Ni0yLjIyLDEuNDQtNC41NywxLjc0LTcuMDVIMjMuNzFDMjMuMDIsMTYuODYsMjIuNDIsMTcuMTEsMjEuOTEsMTcuNjJ6IE0xMy40NSw0Ny43SDIuNTdjLTAuNywwLTEuMywwLjI1LTEuODEsMC43NiAgICAgQzAuMjUsNDguOTcsMCw0OS41NywwLDUwLjI2djUuMTRjMCwwLjY5LDAuMjUsMS4yOSwwLjc2LDEuOHMxLjExLDAuNzYsMS44MSwwLjc2aDEwLjg4YzAuNjksMCwxLjI5LTAuMjUsMS44LTAuNzYgICAgIHMwLjc2LTEuMTEsMC43Ni0xLjh2LTUuMTRjMC0wLjY5LTAuMjUtMS4yOS0wLjc2LTEuOEMxNC43NSw0Ny45NSwxNC4xNCw0Ny43LDEzLjQ1LDQ3Ljd6IE0yLjU3LDQyLjU2aDE4LjU4ICAgICBjMC42OSwwLDEuMjktMC4yNSwxLjgtMC43NmMwLjUxLTAuNSwwLjc2LTEuMTEsMC43Ni0xLjh2LTUuMTNjMC0wLjctMC4yNS0xLjMtMC43Ni0xLjgxYy0wLjUxLTAuNTEtMS4xMS0wLjc2LTEuOC0wLjc2SDIuNTcgICAgIGMtMC43LDAtMS4zLDAuMjUtMS44MSwwLjc2UzAsMzQuMTcsMCwzNC44N1Y0MGMwLDAuNjksMC4yNSwxLjMsMC43NiwxLjhDMS4yNyw0Mi4zMSwxLjg3LDQyLjU2LDIuNTcsNDIuNTZ6IE0zMi4yNiw1Mi43NyAgICAgTDMyLjI2LDUyLjc3Yy0wLjkyLTEuNTctMS41Ny0zLjI4LTEuOTEtNS4wN2gtNi42NGMtMC42OSwwLTEuMjksMC4yNS0xLjgsMC43NnMtMC43NiwxLjExLTAuNzYsMS44djUuMTQgICAgIGMwLDAuNjksMC4yNSwxLjI5LDAuNzYsMS44czEuMTEsMC43NiwxLjgsMC43NmgxMy4xQzM0LjgzLDU2LjMsMzMuMzIsNTQuNTcsMzIuMjYsNTIuNzd6IE00Ny4yMiw5LjQ1ICAgICBjMS41MS0wLjgzLDMuMzUtMC44LDQuODMsMC4wOWMwLjQsMC4yNCwwLjg4LDAuNTUsMS41MSwwLjk4YzAsMC4wMSwwLjAxLDAuMDEsMC4wMSwwLjAxYzAuMjksMC4yLDAuNzYsMC41NCwxLjcxLDEuMzFoMTQuMDEgICAgIGMwLjcsMCwxLjMxLTAuMjYsMS44Mi0wLjc3czAuNzctMS4xMiwwLjc3LTEuODJWNC4wOGMwLTAuNy0wLjI2LTEuMy0wLjc3LTEuODFDNzAuNiwxLjc2LDY5Ljk5LDEuNSw2OS4yOSwxLjVINDguNDQgICAgIGMtMC43LDAtMS4zMSwwLjI2LTEuODIsMC43N3MtMC43NywxLjExLTAuNzcsMS44MXY1LjE3YzAsMC4zOSwwLjA4LDAuNzQsMC4yMywxLjA3QzQ2LjQyLDkuOTgsNDYuOCw5LjY4LDQ3LjIyLDkuNDV6ICAgICAgTTIuNTcsMjcuMTNoMTAuODhjMC42OSwwLDEuMjktMC4yNiwxLjgtMC43N2MwLjUxLTAuNSwwLjc2LTEuMSwwLjc2LTEuOHYtNS4xM2MwLTAuNy0wLjI1LTEuMy0wLjc2LTEuODFzLTEuMTEtMC43Ni0xLjgtMC43NiAgICAgSDIuNTdjLTAuNywwLTEuMywwLjI1LTEuODEsMC43NkMwLjI1LDE4LjEzLDAsMTguNzMsMCwxOS40M3Y1LjEzYzAsMC43LDAuMjUsMS4zLDAuNzYsMS44QzEuMjcsMjYuODcsMS44NywyNy4xMywyLjU3LDI3LjEzeiAgICAgIE0zMS40MSwxMS43N2g2LjljMC43LDAsMS4zLTAuMjYsMS44LTAuNzdjMC41MS0wLjUsMC43Ny0xLjEsMC43Ny0xLjhWNC4wN2MwLTAuNy0wLjI2LTEuMy0wLjc3LTEuODEgICAgIGMtMC41LTAuNTEtMS4xLTAuNzYtMS44LTAuNzZoLTYuOWMtMC42OSwwLTEuMjksMC4yNS0xLjgsMC43NnMtMC43NiwxLjExLTAuNzYsMS44MVY5LjJjMCwwLjcsMC4yNSwxLjMsMC43NiwxLjgxICAgICBDMzAuMTIsMTEuNTEsMzAuNzIsMTEuNzcsMzEuNDEsMTEuNzd6IE0yLjU3LDExLjc3aDE4LjU4YzAuNjksMCwxLjI5LTAuMjYsMS44LTAuNzdjMC41MS0wLjUsMC43Ni0xLjEsMC43Ni0xLjhWNC4wNyAgICAgYzAtMC43LTAuMjUtMS4zLTAuNzYtMS44MWMtMC41MS0wLjUxLTEuMTEtMC43Ni0xLjgtMC43NkgyLjU3Yy0wLjcsMC0xLjMsMC4yNS0xLjgxLDAuNzZTMCwzLjM3LDAsNC4wN1Y5LjIgICAgIGMwLDAuNywwLjI1LDEuMywwLjc2LDEuODFDMS4yNywxMS41MSwxLjg3LDExLjc3LDIuNTcsMTEuNzd6Ii8+JiN4YTsJCTwvZz4mI3hhOwkJPGcgaWQ9InNoYXBlOTU0MC00IiB0cmFuc2Zvcm09InRyYW5zbGF0ZSgzNC40OTE1KSI+JiN4YTsJCQk8dGl0bGUgaWQ9InRpdGxlMTU3MTA3Ij5wYXRoMTUyOTMuMzIyNTM8L3RpdGxlPiYjeGE7CQkJPHBhdGggaWQ9InBhdGgxNTcxMDkiIGlua3NjYXBlOmNvbm5lY3Rvci1jdXJ2YXR1cmU9IjAiIHN0eWxlPSJmaWxsOiNGRjAwMDA7IiBkPSJNMTAuODYsNTcuOTZjLTQuNDUtMi41MS03LjQzLTUuMDUtOC45NC03LjYzICAgICBDMC40LDQ3Ljc1LDAsNDQuNzYsMC43MSw0MS4zNGMwLjMyLTEuMzUsMS4xNC0zLjUyLDIuNDYtNi41MmMxLjMyLTIuOTksMi4wNS01LjM5LDIuMTgtNy4yYzEuMjksMi4zOSwyLjAzLDQuNzcsMi4yMiw3LjE1ICAgICBjNC45LTYuMDUsNy40NC0xMy4xLDcuNjQtMjEuMTZjMC4zMiwwLjIsMC43NCwwLjQ3LDEuMjUsMC44MmMwLjUyLDAuMzYsMS40NywxLjExLDIuODUsMi4yN2MxLjM5LDEuMTYsMi42MSwyLjM3LDMuNjcsMy42MyAgICAgYzEuMDcsMS4yNSwyLjA2LDIuODUsMyw0Ljc4YzAuOTMsMS45MywxLjUsMy44NywxLjY5LDUuOGMwLjUxLTEuMTYsMC44NC0yLjQ1LDAuOTctMy44N2MwLjEzLTEuNDEtMC4wNC0yLjc0LTAuNDktMy45NiAgICAgYzAuNTIsMC4zOSwxLjE5LDEuMDMsMi4wMywxLjkzYzAuODQsMC45MSwxLjc3LDIuMTMsMi44LDMuNjdjMS4wNSwxLjU3LDEuOTcsMy4yMiwyLjc2LDQuOTNjMC44LDEuNzQsMS4zMiwzLjY5LDEuNTQsNS44NSAgICAgYzAuMjMsMi4xNiwwLjA4LDQuMjUtMC40Myw2LjI4Yy0wLjUyLDIuMDMtMS43MSw0LjEyLTMuNTgsNi4yOGMtMS44NywyLjE2LTQuMzgsNC4xNC03LjUzLDUuOTRjMi4xMi00LjI1LDIuNTQtOC44NCwxLjI1LTEzLjc3ICAgICBzLTMuODMtOC43MS03LjYzLTExLjM1YzAuMzIsMS40MiwwLjE0LDMuNzUtMC41Myw3Yy0wLjY4LDMuMjYtMS43Niw1LjcyLTMuMjQsNy40YzAuMjYtMi4wNywwLjMyLTMuNzQsMC4xOS01LjAzICAgICBjLTAuMTMtMS4yOS0wLjMyLTIuMjUtMC41OC0yLjlsLTAuNDgtMC44N2MtMC4zOSwyLjMyLTEuMzksNC42NC0yLjk5LDYuOTZjLTAuODQsMS4yMy0xLjQ3LDIuMzUtMS44OSwzLjM4ICAgICBjLTAuNDIsMS4wMy0wLjU4LDIuMzUtMC40OCwzLjk2QzkuNDYsNTQuMzYsOS45NSw1Ni4xLDEwLjg2LDU3Ljk2eiIvPiYjeGE7CQk8L2c+JiN4YTsJPC9nPiYjeGE7PC9nPiYjeGE7PC9zdmc+;" vertex="1" parent="1">
          <mxGeometry x="97" y="560" width="72" height="56" as="geometry" />
        </mxCell>
        <mxCell id="8CXosc1XJb84E6_PZDKH-17" style="edgeStyle=orthogonalEdgeStyle;rounded=0;orthogonalLoop=1;jettySize=auto;html=1;exitX=0.5;exitY=0;exitDx=0;exitDy=0;entryX=0.951;entryY=0.992;entryDx=0;entryDy=0;entryPerimeter=0;" edge="1" parent="1" source="8CXosc1XJb84E6_PZDKH-3" target="8CXosc1XJb84E6_PZDKH-15">
          <mxGeometry relative="1" as="geometry">
            <Array as="points">
              <mxPoint x="514" y="250" />
              <mxPoint x="709" y="250" />
            </Array>
          </mxGeometry>
        </mxCell>
        <mxCell id="8CXosc1XJb84E6_PZDKH-3" value="" style="shape=image;verticalLabelPosition=bottom;labelBackgroundColor=#ffffff;verticalAlign=top;aspect=fixed;imageAspect=0;image=data:image/svg+xml,PHN2ZyB4bWxuczpjYz0iaHR0cDovL2NyZWF0aXZlY29tbW9ucy5vcmcvbnMjIiB4bWxuczpkYz0iaHR0cDovL3B1cmwub3JnL2RjL2VsZW1lbnRzLzEuMS8iIHhtbG5zOmlua3NjYXBlPSJodHRwOi8vd3d3Lmlua3NjYXBlLm9yZy9uYW1lc3BhY2VzL2lua3NjYXBlIiB4bWxuczpyZGY9Imh0dHA6Ly93d3cudzMub3JnLzE5OTkvMDIvMjItcmRmLXN5bnRheC1ucyMiIHhtbG5zOnNvZGlwb2RpPSJodHRwOi8vc29kaXBvZGkuc291cmNlZm9yZ2UubmV0L0RURC9zb2RpcG9kaS0wLmR0ZCIgeG1sbnM6c3ZnPSJodHRwOi8vd3d3LnczLm9yZy8yMDAwL3N2ZyIgeG1sbnM9Imh0dHA6Ly93d3cudzMub3JnLzIwMDAvc3ZnIiB4bWxuczp4bGluaz0iaHR0cDovL3d3dy53My5vcmcvMTk5OS94bGluayIgdmVyc2lvbj0iMS4xIiBpZD0ic3ZnMTU3MTE1IiBpbmtzY2FwZTp2ZXJzaW9uPSIwLjkyLjMgKDI0MDU1NDYsIDIwMTgtMDMtMTEpIiBzb2RpcG9kaTpkb2NuYW1lPSJmaXJld2FsbF8xLnN2ZyIgeD0iMHB4IiB5PSIwcHgiIHZpZXdCb3g9IjAgMCA3MS44OCA1Ni40NiIgc3R5bGU9ImVuYWJsZS1iYWNrZ3JvdW5kOm5ldyAwIDAgNzEuODggNTYuNDY7IiB4bWw6c3BhY2U9InByZXNlcnZlIj4mI3hhOzxzb2RpcG9kaTpuYW1lZHZpZXcgYm9yZGVyY29sb3I9IiM2NjY2NjYiIGJvcmRlcm9wYWNpdHk9IjEiIGZpdC1tYXJnaW4tYm90dG9tPSIwIiBmaXQtbWFyZ2luLWxlZnQ9IjAiIGZpdC1tYXJnaW4tcmlnaHQ9IjAiIGZpdC1tYXJnaW4tdG9wPSIwIiBncmlkdG9sZXJhbmNlPSIxMCIgZ3VpZGV0b2xlcmFuY2U9IjEwIiBpZD0ibmFtZWR2aWV3MTU3MTE3IiBpbmtzY2FwZTpjdXJyZW50LWxheWVyPSJzdmcxNTcxMTUiIGlua3NjYXBlOmN4PSI0Ny45MTgyNCIgaW5rc2NhcGU6Y3k9IjM3LjYzNzY0NyIgaW5rc2NhcGU6cGFnZW9wYWNpdHk9IjAiIGlua3NjYXBlOnBhZ2VzaGFkb3c9IjIiIGlua3NjYXBlOndpbmRvdy1oZWlnaHQ9IjEwMTciIGlua3NjYXBlOndpbmRvdy1tYXhpbWl6ZWQ9IjEiIGlua3NjYXBlOndpbmRvdy13aWR0aD0iMTkyMCIgaW5rc2NhcGU6d2luZG93LXg9Ii04IiBpbmtzY2FwZTp3aW5kb3cteT0iLTgiIGlua3NjYXBlOnpvb209IjExLjIxODI2MSIgb2JqZWN0dG9sZXJhbmNlPSIxMCIgcGFnZWNvbG9yPSIjZmZmZmZmIiBzaG93Z3JpZD0iZmFsc2UiPiYjeGE7CTwvc29kaXBvZGk6bmFtZWR2aWV3PiYjeGE7PGcgaWQ9ImcxNTcxMTMiIHRyYW5zZm9ybT0idHJhbnNsYXRlKC0wLjc1LC0wLjc0OTI4MjEyKSI+JiN4YTsJPHRpdGxlIGlkPSJ0aXRsZTE1NzA5OCI+UGFnZS0xPC90aXRsZT4mI3hhOwk8ZyBpZD0iZ3JvdXA5NTM4LTEiIHRyYW5zZm9ybT0idHJhbnNsYXRlKDAuNzUsLTAuNzUpIj4mI3hhOwkJPHRpdGxlIGlkPSJ0aXRsZTE1NzEwMCI+RmlyZXdhbGwgIzE8L3RpdGxlPiYjeGE7CQk8ZyBpZD0ic2hhcGU5NTM5LTIiIHRyYW5zZm9ybT0idHJhbnNsYXRlKDAsLTcuNDg3MDllLTQpIj4mI3hhOwkJCTx0aXRsZSBpZD0idGl0bGUxNTcxMDIiPnBhdGgxNTI5MS4zMjI1MjwvdGl0bGU+JiN4YTsJCQk8cGF0aCBpZD0icGF0aDE1NzEwNCIgaW5rc2NhcGU6Y29ubmVjdG9yLWN1cnZhdHVyZT0iMCIgc3R5bGU9ImZpbGw6IzQzNTY3MDsiIGQ9Ik0yMS45MSwxNy42MmMtMC41MSwwLjUxLTAuNzYsMS4xMS0wLjc2LDEuODEgICAgIHY1LjEzYzAsMC43LDAuMjUsMS4zLDAuNzYsMS44MWMwLjUxLDAuNSwxLjExLDAuNzYsMS44LDAuNzZoMTEuMzRjMC4yNy0yLjY0LDIuNjMtNC41Nyw1LjI4LTQuM2MwLjk1LDAuMSwxLjg0LDAuNDcsMi41NywxLjA4ICAgICBjMC44Ni0yLjIyLDEuNDQtNC41NywxLjc0LTcuMDVIMjMuNzFDMjMuMDIsMTYuODYsMjIuNDIsMTcuMTEsMjEuOTEsMTcuNjJ6IE0xMy40NSw0Ny43SDIuNTdjLTAuNywwLTEuMywwLjI1LTEuODEsMC43NiAgICAgQzAuMjUsNDguOTcsMCw0OS41NywwLDUwLjI2djUuMTRjMCwwLjY5LDAuMjUsMS4yOSwwLjc2LDEuOHMxLjExLDAuNzYsMS44MSwwLjc2aDEwLjg4YzAuNjksMCwxLjI5LTAuMjUsMS44LTAuNzYgICAgIHMwLjc2LTEuMTEsMC43Ni0xLjh2LTUuMTRjMC0wLjY5LTAuMjUtMS4yOS0wLjc2LTEuOEMxNC43NSw0Ny45NSwxNC4xNCw0Ny43LDEzLjQ1LDQ3Ljd6IE0yLjU3LDQyLjU2aDE4LjU4ICAgICBjMC42OSwwLDEuMjktMC4yNSwxLjgtMC43NmMwLjUxLTAuNSwwLjc2LTEuMTEsMC43Ni0xLjh2LTUuMTNjMC0wLjctMC4yNS0xLjMtMC43Ni0xLjgxYy0wLjUxLTAuNTEtMS4xMS0wLjc2LTEuOC0wLjc2SDIuNTcgICAgIGMtMC43LDAtMS4zLDAuMjUtMS44MSwwLjc2UzAsMzQuMTcsMCwzNC44N1Y0MGMwLDAuNjksMC4yNSwxLjMsMC43NiwxLjhDMS4yNyw0Mi4zMSwxLjg3LDQyLjU2LDIuNTcsNDIuNTZ6IE0zMi4yNiw1Mi43NyAgICAgTDMyLjI2LDUyLjc3Yy0wLjkyLTEuNTctMS41Ny0zLjI4LTEuOTEtNS4wN2gtNi42NGMtMC42OSwwLTEuMjksMC4yNS0xLjgsMC43NnMtMC43NiwxLjExLTAuNzYsMS44djUuMTQgICAgIGMwLDAuNjksMC4yNSwxLjI5LDAuNzYsMS44czEuMTEsMC43NiwxLjgsMC43NmgxMy4xQzM0LjgzLDU2LjMsMzMuMzIsNTQuNTcsMzIuMjYsNTIuNzd6IE00Ny4yMiw5LjQ1ICAgICBjMS41MS0wLjgzLDMuMzUtMC44LDQuODMsMC4wOWMwLjQsMC4yNCwwLjg4LDAuNTUsMS41MSwwLjk4YzAsMC4wMSwwLjAxLDAuMDEsMC4wMSwwLjAxYzAuMjksMC4yLDAuNzYsMC41NCwxLjcxLDEuMzFoMTQuMDEgICAgIGMwLjcsMCwxLjMxLTAuMjYsMS44Mi0wLjc3czAuNzctMS4xMiwwLjc3LTEuODJWNC4wOGMwLTAuNy0wLjI2LTEuMy0wLjc3LTEuODFDNzAuNiwxLjc2LDY5Ljk5LDEuNSw2OS4yOSwxLjVINDguNDQgICAgIGMtMC43LDAtMS4zMSwwLjI2LTEuODIsMC43N3MtMC43NywxLjExLTAuNzcsMS44MXY1LjE3YzAsMC4zOSwwLjA4LDAuNzQsMC4yMywxLjA3QzQ2LjQyLDkuOTgsNDYuOCw5LjY4LDQ3LjIyLDkuNDV6ICAgICAgTTIuNTcsMjcuMTNoMTAuODhjMC42OSwwLDEuMjktMC4yNiwxLjgtMC43N2MwLjUxLTAuNSwwLjc2LTEuMSwwLjc2LTEuOHYtNS4xM2MwLTAuNy0wLjI1LTEuMy0wLjc2LTEuODFzLTEuMTEtMC43Ni0xLjgtMC43NiAgICAgSDIuNTdjLTAuNywwLTEuMywwLjI1LTEuODEsMC43NkMwLjI1LDE4LjEzLDAsMTguNzMsMCwxOS40M3Y1LjEzYzAsMC43LDAuMjUsMS4zLDAuNzYsMS44QzEuMjcsMjYuODcsMS44NywyNy4xMywyLjU3LDI3LjEzeiAgICAgIE0zMS40MSwxMS43N2g2LjljMC43LDAsMS4zLTAuMjYsMS44LTAuNzdjMC41MS0wLjUsMC43Ny0xLjEsMC43Ny0xLjhWNC4wN2MwLTAuNy0wLjI2LTEuMy0wLjc3LTEuODEgICAgIGMtMC41LTAuNTEtMS4xLTAuNzYtMS44LTAuNzZoLTYuOWMtMC42OSwwLTEuMjksMC4yNS0xLjgsMC43NnMtMC43NiwxLjExLTAuNzYsMS44MVY5LjJjMCwwLjcsMC4yNSwxLjMsMC43NiwxLjgxICAgICBDMzAuMTIsMTEuNTEsMzAuNzIsMTEuNzcsMzEuNDEsMTEuNzd6IE0yLjU3LDExLjc3aDE4LjU4YzAuNjksMCwxLjI5LTAuMjYsMS44LTAuNzdjMC41MS0wLjUsMC43Ni0xLjEsMC43Ni0xLjhWNC4wNyAgICAgYzAtMC43LTAuMjUtMS4zLTAuNzYtMS44MWMtMC41MS0wLjUxLTEuMTEtMC43Ni0xLjgtMC43NkgyLjU3Yy0wLjcsMC0xLjMsMC4yNS0xLjgxLDAuNzZTMCwzLjM3LDAsNC4wN1Y5LjIgICAgIGMwLDAuNywwLjI1LDEuMywwLjc2LDEuODFDMS4yNywxMS41MSwxLjg3LDExLjc3LDIuNTcsMTEuNzd6Ii8+JiN4YTsJCTwvZz4mI3hhOwkJPGcgaWQ9InNoYXBlOTU0MC00IiB0cmFuc2Zvcm09InRyYW5zbGF0ZSgzNC40OTE1KSI+JiN4YTsJCQk8dGl0bGUgaWQ9InRpdGxlMTU3MTA3Ij5wYXRoMTUyOTMuMzIyNTM8L3RpdGxlPiYjeGE7CQkJPHBhdGggaWQ9InBhdGgxNTcxMDkiIGlua3NjYXBlOmNvbm5lY3Rvci1jdXJ2YXR1cmU9IjAiIHN0eWxlPSJmaWxsOiNGRjAwMDA7IiBkPSJNMTAuODYsNTcuOTZjLTQuNDUtMi41MS03LjQzLTUuMDUtOC45NC03LjYzICAgICBDMC40LDQ3Ljc1LDAsNDQuNzYsMC43MSw0MS4zNGMwLjMyLTEuMzUsMS4xNC0zLjUyLDIuNDYtNi41MmMxLjMyLTIuOTksMi4wNS01LjM5LDIuMTgtNy4yYzEuMjksMi4zOSwyLjAzLDQuNzcsMi4yMiw3LjE1ICAgICBjNC45LTYuMDUsNy40NC0xMy4xLDcuNjQtMjEuMTZjMC4zMiwwLjIsMC43NCwwLjQ3LDEuMjUsMC44MmMwLjUyLDAuMzYsMS40NywxLjExLDIuODUsMi4yN2MxLjM5LDEuMTYsMi42MSwyLjM3LDMuNjcsMy42MyAgICAgYzEuMDcsMS4yNSwyLjA2LDIuODUsMyw0Ljc4YzAuOTMsMS45MywxLjUsMy44NywxLjY5LDUuOGMwLjUxLTEuMTYsMC44NC0yLjQ1LDAuOTctMy44N2MwLjEzLTEuNDEtMC4wNC0yLjc0LTAuNDktMy45NiAgICAgYzAuNTIsMC4zOSwxLjE5LDEuMDMsMi4wMywxLjkzYzAuODQsMC45MSwxLjc3LDIuMTMsMi44LDMuNjdjMS4wNSwxLjU3LDEuOTcsMy4yMiwyLjc2LDQuOTNjMC44LDEuNzQsMS4zMiwzLjY5LDEuNTQsNS44NSAgICAgYzAuMjMsMi4xNiwwLjA4LDQuMjUtMC40Myw2LjI4Yy0wLjUyLDIuMDMtMS43MSw0LjEyLTMuNTgsNi4yOGMtMS44NywyLjE2LTQuMzgsNC4xNC03LjUzLDUuOTRjMi4xMi00LjI1LDIuNTQtOC44NCwxLjI1LTEzLjc3ICAgICBzLTMuODMtOC43MS03LjYzLTExLjM1YzAuMzIsMS40MiwwLjE0LDMuNzUtMC41Myw3Yy0wLjY4LDMuMjYtMS43Niw1LjcyLTMuMjQsNy40YzAuMjYtMi4wNywwLjMyLTMuNzQsMC4xOS01LjAzICAgICBjLTAuMTMtMS4yOS0wLjMyLTIuMjUtMC41OC0yLjlsLTAuNDgtMC44N2MtMC4zOSwyLjMyLTEuMzksNC42NC0yLjk5LDYuOTZjLTAuODQsMS4yMy0xLjQ3LDIuMzUtMS44OSwzLjM4ICAgICBjLTAuNDIsMS4wMy0wLjU4LDIuMzUtMC40OCwzLjk2QzkuNDYsNTQuMzYsOS45NSw1Ni4xLDEwLjg2LDU3Ljk2eiIvPiYjeGE7CQk8L2c+JiN4YTsJPC9nPiYjeGE7PC9nPiYjeGE7PC9zdmc+;labelPosition=right;align=left;" vertex="1" parent="1">
          <mxGeometry x="478" y="270" width="72" height="56" as="geometry" />
        </mxCell>
        <mxCell id="8CXosc1XJb84E6_PZDKH-12" style="edgeStyle=orthogonalEdgeStyle;rounded=0;orthogonalLoop=1;jettySize=auto;html=1;exitX=0.63;exitY=-0.091;exitDx=0;exitDy=0;entryX=0.961;entryY=0.625;entryDx=0;entryDy=0;entryPerimeter=0;shape=flexArrow;exitPerimeter=0;fillColor=#e51400;strokeColor=#B20000;" edge="1" parent="1" source="8CXosc1XJb84E6_PZDKH-4" target="8CXosc1XJb84E6_PZDKH-11">
          <mxGeometry relative="1" as="geometry">
            <Array as="points">
              <mxPoint x="675" y="484" />
            </Array>
          </mxGeometry>
        </mxCell>
        <mxCell id="8CXosc1XJb84E6_PZDKH-4" value="189.193.10.226" style="shape=image;verticalLabelPosition=middle;labelBackgroundColor=#ffffff;verticalAlign=middle;aspect=fixed;imageAspect=0;image=data:image/svg+xml,PHN2ZyB4bWxuczpjYz0iaHR0cDovL2NyZWF0aXZlY29tbW9ucy5vcmcvbnMjIiB4bWxuczpkYz0iaHR0cDovL3B1cmwub3JnL2RjL2VsZW1lbnRzLzEuMS8iIHhtbG5zOmlua3NjYXBlPSJodHRwOi8vd3d3Lmlua3NjYXBlLm9yZy9uYW1lc3BhY2VzL2lua3NjYXBlIiB4bWxuczpyZGY9Imh0dHA6Ly93d3cudzMub3JnLzE5OTkvMDIvMjItcmRmLXN5bnRheC1ucyMiIHhtbG5zOnNvZGlwb2RpPSJodHRwOi8vc29kaXBvZGkuc291cmNlZm9yZ2UubmV0L0RURC9zb2RpcG9kaS0wLmR0ZCIgeG1sbnM6c3ZnPSJodHRwOi8vd3d3LnczLm9yZy8yMDAwL3N2ZyIgeG1sbnM9Imh0dHA6Ly93d3cudzMub3JnLzIwMDAvc3ZnIiB4bWxuczp4bGluaz0iaHR0cDovL3d3dy53My5vcmcvMTk5OS94bGluayIgdmVyc2lvbj0iMS4xIiBpZD0ic3ZnMTU3MTE1IiBpbmtzY2FwZTp2ZXJzaW9uPSIwLjkyLjMgKDI0MDU1NDYsIDIwMTgtMDMtMTEpIiBzb2RpcG9kaTpkb2NuYW1lPSJmaXJld2FsbF8xLnN2ZyIgeD0iMHB4IiB5PSIwcHgiIHZpZXdCb3g9IjAgMCA3MS44OCA1Ni40NiIgc3R5bGU9ImVuYWJsZS1iYWNrZ3JvdW5kOm5ldyAwIDAgNzEuODggNTYuNDY7IiB4bWw6c3BhY2U9InByZXNlcnZlIj4mI3hhOzxzb2RpcG9kaTpuYW1lZHZpZXcgYm9yZGVyY29sb3I9IiM2NjY2NjYiIGJvcmRlcm9wYWNpdHk9IjEiIGZpdC1tYXJnaW4tYm90dG9tPSIwIiBmaXQtbWFyZ2luLWxlZnQ9IjAiIGZpdC1tYXJnaW4tcmlnaHQ9IjAiIGZpdC1tYXJnaW4tdG9wPSIwIiBncmlkdG9sZXJhbmNlPSIxMCIgZ3VpZGV0b2xlcmFuY2U9IjEwIiBpZD0ibmFtZWR2aWV3MTU3MTE3IiBpbmtzY2FwZTpjdXJyZW50LWxheWVyPSJzdmcxNTcxMTUiIGlua3NjYXBlOmN4PSI0Ny45MTgyNCIgaW5rc2NhcGU6Y3k9IjM3LjYzNzY0NyIgaW5rc2NhcGU6cGFnZW9wYWNpdHk9IjAiIGlua3NjYXBlOnBhZ2VzaGFkb3c9IjIiIGlua3NjYXBlOndpbmRvdy1oZWlnaHQ9IjEwMTciIGlua3NjYXBlOndpbmRvdy1tYXhpbWl6ZWQ9IjEiIGlua3NjYXBlOndpbmRvdy13aWR0aD0iMTkyMCIgaW5rc2NhcGU6d2luZG93LXg9Ii04IiBpbmtzY2FwZTp3aW5kb3cteT0iLTgiIGlua3NjYXBlOnpvb209IjExLjIxODI2MSIgb2JqZWN0dG9sZXJhbmNlPSIxMCIgcGFnZWNvbG9yPSIjZmZmZmZmIiBzaG93Z3JpZD0iZmFsc2UiPiYjeGE7CTwvc29kaXBvZGk6bmFtZWR2aWV3PiYjeGE7PGcgaWQ9ImcxNTcxMTMiIHRyYW5zZm9ybT0idHJhbnNsYXRlKC0wLjc1LC0wLjc0OTI4MjEyKSI+JiN4YTsJPHRpdGxlIGlkPSJ0aXRsZTE1NzA5OCI+UGFnZS0xPC90aXRsZT4mI3hhOwk8ZyBpZD0iZ3JvdXA5NTM4LTEiIHRyYW5zZm9ybT0idHJhbnNsYXRlKDAuNzUsLTAuNzUpIj4mI3hhOwkJPHRpdGxlIGlkPSJ0aXRsZTE1NzEwMCI+RmlyZXdhbGwgIzE8L3RpdGxlPiYjeGE7CQk8ZyBpZD0ic2hhcGU5NTM5LTIiIHRyYW5zZm9ybT0idHJhbnNsYXRlKDAsLTcuNDg3MDllLTQpIj4mI3hhOwkJCTx0aXRsZSBpZD0idGl0bGUxNTcxMDIiPnBhdGgxNTI5MS4zMjI1MjwvdGl0bGU+JiN4YTsJCQk8cGF0aCBpZD0icGF0aDE1NzEwNCIgaW5rc2NhcGU6Y29ubmVjdG9yLWN1cnZhdHVyZT0iMCIgc3R5bGU9ImZpbGw6IzQzNTY3MDsiIGQ9Ik0yMS45MSwxNy42MmMtMC41MSwwLjUxLTAuNzYsMS4xMS0wLjc2LDEuODEgICAgIHY1LjEzYzAsMC43LDAuMjUsMS4zLDAuNzYsMS44MWMwLjUxLDAuNSwxLjExLDAuNzYsMS44LDAuNzZoMTEuMzRjMC4yNy0yLjY0LDIuNjMtNC41Nyw1LjI4LTQuM2MwLjk1LDAuMSwxLjg0LDAuNDcsMi41NywxLjA4ICAgICBjMC44Ni0yLjIyLDEuNDQtNC41NywxLjc0LTcuMDVIMjMuNzFDMjMuMDIsMTYuODYsMjIuNDIsMTcuMTEsMjEuOTEsMTcuNjJ6IE0xMy40NSw0Ny43SDIuNTdjLTAuNywwLTEuMywwLjI1LTEuODEsMC43NiAgICAgQzAuMjUsNDguOTcsMCw0OS41NywwLDUwLjI2djUuMTRjMCwwLjY5LDAuMjUsMS4yOSwwLjc2LDEuOHMxLjExLDAuNzYsMS44MSwwLjc2aDEwLjg4YzAuNjksMCwxLjI5LTAuMjUsMS44LTAuNzYgICAgIHMwLjc2LTEuMTEsMC43Ni0xLjh2LTUuMTRjMC0wLjY5LTAuMjUtMS4yOS0wLjc2LTEuOEMxNC43NSw0Ny45NSwxNC4xNCw0Ny43LDEzLjQ1LDQ3Ljd6IE0yLjU3LDQyLjU2aDE4LjU4ICAgICBjMC42OSwwLDEuMjktMC4yNSwxLjgtMC43NmMwLjUxLTAuNSwwLjc2LTEuMTEsMC43Ni0xLjh2LTUuMTNjMC0wLjctMC4yNS0xLjMtMC43Ni0xLjgxYy0wLjUxLTAuNTEtMS4xMS0wLjc2LTEuOC0wLjc2SDIuNTcgICAgIGMtMC43LDAtMS4zLDAuMjUtMS44MSwwLjc2UzAsMzQuMTcsMCwzNC44N1Y0MGMwLDAuNjksMC4yNSwxLjMsMC43NiwxLjhDMS4yNyw0Mi4zMSwxLjg3LDQyLjU2LDIuNTcsNDIuNTZ6IE0zMi4yNiw1Mi43NyAgICAgTDMyLjI2LDUyLjc3Yy0wLjkyLTEuNTctMS41Ny0zLjI4LTEuOTEtNS4wN2gtNi42NGMtMC42OSwwLTEuMjksMC4yNS0xLjgsMC43NnMtMC43NiwxLjExLTAuNzYsMS44djUuMTQgICAgIGMwLDAuNjksMC4yNSwxLjI5LDAuNzYsMS44czEuMTEsMC43NiwxLjgsMC43NmgxMy4xQzM0LjgzLDU2LjMsMzMuMzIsNTQuNTcsMzIuMjYsNTIuNzd6IE00Ny4yMiw5LjQ1ICAgICBjMS41MS0wLjgzLDMuMzUtMC44LDQuODMsMC4wOWMwLjQsMC4yNCwwLjg4LDAuNTUsMS41MSwwLjk4YzAsMC4wMSwwLjAxLDAuMDEsMC4wMSwwLjAxYzAuMjksMC4yLDAuNzYsMC41NCwxLjcxLDEuMzFoMTQuMDEgICAgIGMwLjcsMCwxLjMxLTAuMjYsMS44Mi0wLjc3czAuNzctMS4xMiwwLjc3LTEuODJWNC4wOGMwLTAuNy0wLjI2LTEuMy0wLjc3LTEuODFDNzAuNiwxLjc2LDY5Ljk5LDEuNSw2OS4yOSwxLjVINDguNDQgICAgIGMtMC43LDAtMS4zMSwwLjI2LTEuODIsMC43N3MtMC43NywxLjExLTAuNzcsMS44MXY1LjE3YzAsMC4zOSwwLjA4LDAuNzQsMC4yMywxLjA3QzQ2LjQyLDkuOTgsNDYuOCw5LjY4LDQ3LjIyLDkuNDV6ICAgICAgTTIuNTcsMjcuMTNoMTAuODhjMC42OSwwLDEuMjktMC4yNiwxLjgtMC43N2MwLjUxLTAuNSwwLjc2LTEuMSwwLjc2LTEuOHYtNS4xM2MwLTAuNy0wLjI1LTEuMy0wLjc2LTEuODFzLTEuMTEtMC43Ni0xLjgtMC43NiAgICAgSDIuNTdjLTAuNywwLTEuMywwLjI1LTEuODEsMC43NkMwLjI1LDE4LjEzLDAsMTguNzMsMCwxOS40M3Y1LjEzYzAsMC43LDAuMjUsMS4zLDAuNzYsMS44QzEuMjcsMjYuODcsMS44NywyNy4xMywyLjU3LDI3LjEzeiAgICAgIE0zMS40MSwxMS43N2g2LjljMC43LDAsMS4zLTAuMjYsMS44LTAuNzdjMC41MS0wLjUsMC43Ny0xLjEsMC43Ny0xLjhWNC4wN2MwLTAuNy0wLjI2LTEuMy0wLjc3LTEuODEgICAgIGMtMC41LTAuNTEtMS4xLTAuNzYtMS44LTAuNzZoLTYuOWMtMC42OSwwLTEuMjksMC4yNS0xLjgsMC43NnMtMC43NiwxLjExLTAuNzYsMS44MVY5LjJjMCwwLjcsMC4yNSwxLjMsMC43NiwxLjgxICAgICBDMzAuMTIsMTEuNTEsMzAuNzIsMTEuNzcsMzEuNDEsMTEuNzd6IE0yLjU3LDExLjc3aDE4LjU4YzAuNjksMCwxLjI5LTAuMjYsMS44LTAuNzdjMC41MS0wLjUsMC43Ni0xLjEsMC43Ni0xLjhWNC4wNyAgICAgYzAtMC43LTAuMjUtMS4zLTAuNzYtMS44MWMtMC41MS0wLjUxLTEuMTEtMC43Ni0xLjgtMC43NkgyLjU3Yy0wLjcsMC0xLjMsMC4yNS0xLjgxLDAuNzZTMCwzLjM3LDAsNC4wN1Y5LjIgICAgIGMwLDAuNywwLjI1LDEuMywwLjc2LDEuODFDMS4yNywxMS41MSwxLjg3LDExLjc3LDIuNTcsMTEuNzd6Ii8+JiN4YTsJCTwvZz4mI3hhOwkJPGcgaWQ9InNoYXBlOTU0MC00IiB0cmFuc2Zvcm09InRyYW5zbGF0ZSgzNC40OTE1KSI+JiN4YTsJCQk8dGl0bGUgaWQ9InRpdGxlMTU3MTA3Ij5wYXRoMTUyOTMuMzIyNTM8L3RpdGxlPiYjeGE7CQkJPHBhdGggaWQ9InBhdGgxNTcxMDkiIGlua3NjYXBlOmNvbm5lY3Rvci1jdXJ2YXR1cmU9IjAiIHN0eWxlPSJmaWxsOiNGRjAwMDA7IiBkPSJNMTAuODYsNTcuOTZjLTQuNDUtMi41MS03LjQzLTUuMDUtOC45NC03LjYzICAgICBDMC40LDQ3Ljc1LDAsNDQuNzYsMC43MSw0MS4zNGMwLjMyLTEuMzUsMS4xNC0zLjUyLDIuNDYtNi41MmMxLjMyLTIuOTksMi4wNS01LjM5LDIuMTgtNy4yYzEuMjksMi4zOSwyLjAzLDQuNzcsMi4yMiw3LjE1ICAgICBjNC45LTYuMDUsNy40NC0xMy4xLDcuNjQtMjEuMTZjMC4zMiwwLjIsMC43NCwwLjQ3LDEuMjUsMC44MmMwLjUyLDAuMzYsMS40NywxLjExLDIuODUsMi4yN2MxLjM5LDEuMTYsMi42MSwyLjM3LDMuNjcsMy42MyAgICAgYzEuMDcsMS4yNSwyLjA2LDIuODUsMyw0Ljc4YzAuOTMsMS45MywxLjUsMy44NywxLjY5LDUuOGMwLjUxLTEuMTYsMC44NC0yLjQ1LDAuOTctMy44N2MwLjEzLTEuNDEtMC4wNC0yLjc0LTAuNDktMy45NiAgICAgYzAuNTIsMC4zOSwxLjE5LDEuMDMsMi4wMywxLjkzYzAuODQsMC45MSwxLjc3LDIuMTMsMi44LDMuNjdjMS4wNSwxLjU3LDEuOTcsMy4yMiwyLjc2LDQuOTNjMC44LDEuNzQsMS4zMiwzLjY5LDEuNTQsNS44NSAgICAgYzAuMjMsMi4xNiwwLjA4LDQuMjUtMC40Myw2LjI4Yy0wLjUyLDIuMDMtMS43MSw0LjEyLTMuNTgsNi4yOGMtMS44NywyLjE2LTQuMzgsNC4xNC03LjUzLDUuOTRjMi4xMi00LjI1LDIuNTQtOC44NCwxLjI1LTEzLjc3ICAgICBzLTMuODMtOC43MS03LjYzLTExLjM1YzAuMzIsMS40MiwwLjE0LDMuNzUtMC41Myw3Yy0wLjY4LDMuMjYtMS43Niw1LjcyLTMuMjQsNy40YzAuMjYtMi4wNywwLjMyLTMuNzQsMC4xOS01LjAzICAgICBjLTAuMTMtMS4yOS0wLjMyLTIuMjUtMC41OC0yLjlsLTAuNDgtMC44N2MtMC4zOSwyLjMyLTEuMzksNC42NC0yLjk5LDYuOTZjLTAuODQsMS4yMy0xLjQ3LDIuMzUtMS44OSwzLjM4ICAgICBjLTAuNDIsMS4wMy0wLjU4LDIuMzUtMC40OCwzLjk2QzkuNDYsNTQuMzYsOS45NSw1Ni4xLDEwLjg2LDU3Ljk2eiIvPiYjeGE7CQk8L2c+JiN4YTsJPC9nPiYjeGE7PC9nPiYjeGE7PC9zdmc+;labelPosition=left;align=right;" vertex="1" parent="1">
          <mxGeometry x="630" y="670" width="72" height="56" as="geometry" />
        </mxCell>
        <mxCell id="8CXosc1XJb84E6_PZDKH-49" style="edgeStyle=orthogonalEdgeStyle;rounded=0;orthogonalLoop=1;jettySize=auto;html=1;shape=flexArrow;fillColor=#e51400;strokeColor=#B20000;" edge="1" parent="1" source="8CXosc1XJb84E6_PZDKH-11" target="8CXosc1XJb84E6_PZDKH-3">
          <mxGeometry relative="1" as="geometry" />
        </mxCell>
        <mxCell id="8CXosc1XJb84E6_PZDKH-11" value="&lt;font style=&quot;font-size: 14px;&quot;&gt;&lt;b&gt;INTERNET&lt;/b&gt;&lt;/font&gt;" style="html=1;verticalLabelPosition=middle;align=center;labelBackgroundColor=#ffffff;verticalAlign=middle;strokeWidth=2;strokeColor=#0080F0;shadow=0;dashed=0;shape=mxgraph.ios7.icons.cloud;labelPosition=center;" vertex="1" parent="1">
          <mxGeometry x="438.5" y="410" width="151" height="118" as="geometry" />
        </mxCell>
        <mxCell id="8CXosc1XJb84E6_PZDKH-18" value="Findface&#xa;10.50.16.70/20&#xa;TCP/443&#xa;TCP/80&#xa;TCP/22" style="shape=image;verticalLabelPosition=bottom;labelBackgroundColor=#ffffff;verticalAlign=top;aspect=fixed;imageAspect=0;image=data:image/svg+xml,PHN2ZyB4bWxuczpjYz0iaHR0cDovL2NyZWF0aXZlY29tbW9ucy5vcmcvbnMjIiB4bWxuczpkYz0iaHR0cDovL3B1cmwub3JnL2RjL2VsZW1lbnRzLzEuMS8iIHhtbG5zOmlua3NjYXBlPSJodHRwOi8vd3d3Lmlua3NjYXBlLm9yZy9uYW1lc3BhY2VzL2lua3NjYXBlIiB4bWxuczpyZGY9Imh0dHA6Ly93d3cudzMub3JnLzE5OTkvMDIvMjItcmRmLXN5bnRheC1ucyMiIHhtbG5zOnNvZGlwb2RpPSJodHRwOi8vc29kaXBvZGkuc291cmNlZm9yZ2UubmV0L0RURC9zb2RpcG9kaS0wLmR0ZCIgeG1sbnM6c3ZnPSJodHRwOi8vd3d3LnczLm9yZy8yMDAwL3N2ZyIgeG1sbnM9Imh0dHA6Ly93d3cudzMub3JnLzIwMDAvc3ZnIiB4bWxuczp4bGluaz0iaHR0cDovL3d3dy53My5vcmcvMTk5OS94bGluayIgdmVyc2lvbj0iMS4xIiBpZD0ic3ZnNzkzNCIgaW5rc2NhcGU6dmVyc2lvbj0iMC45Mi4zICgyNDA1NTQ2LCAyMDE4LTAzLTExKSIgc29kaXBvZGk6ZG9jbmFtZT0ic2VydmVyXzQuc3ZnIiB4PSIwcHgiIHk9IjBweCIgdmlld0JveD0iMCAwIDM5Ljk3IDYzLjUxIiBzdHlsZT0iZW5hYmxlLWJhY2tncm91bmQ6bmV3IDAgMCAzOS45NyA2My41MTsiIHhtbDpzcGFjZT0icHJlc2VydmUiPiYjeGE7PHNvZGlwb2RpOm5hbWVkdmlldyBib3JkZXJjb2xvcj0iIzY2NjY2NiIgYm9yZGVyb3BhY2l0eT0iMSIgZml0LW1hcmdpbi1ib3R0b209IjAiIGZpdC1tYXJnaW4tbGVmdD0iMCIgZml0LW1hcmdpbi1yaWdodD0iMCIgZml0LW1hcmdpbi10b3A9IjAiIGdyaWR0b2xlcmFuY2U9IjEwIiBndWlkZXRvbGVyYW5jZT0iMTAiIGlkPSJuYW1lZHZpZXc3OTM2IiBpbmtzY2FwZTpjdXJyZW50LWxheWVyPSJzdmc3OTM0IiBpbmtzY2FwZTpjeD0iMjYuNjQ4OTkzIiBpbmtzY2FwZTpjeT0iNDIuMzQwNDk4IiBpbmtzY2FwZTpwYWdlb3BhY2l0eT0iMCIgaW5rc2NhcGU6cGFnZXNoYWRvdz0iMiIgaW5rc2NhcGU6d2luZG93LWhlaWdodD0iMTAxNyIgaW5rc2NhcGU6d2luZG93LW1heGltaXplZD0iMSIgaW5rc2NhcGU6d2luZG93LXdpZHRoPSIxOTIwIiBpbmtzY2FwZTp3aW5kb3cteD0iLTgiIGlua3NjYXBlOndpbmRvdy15PSItOCIgaW5rc2NhcGU6em9vbT0iMTAuMjU5ODExIiBvYmplY3R0b2xlcmFuY2U9IjEwIiBwYWdlY29sb3I9IiNmZmZmZmYiIHNob3dncmlkPSJmYWxzZSI+JiN4YTsJPC9zb2RpcG9kaTpuYW1lZHZpZXc+JiN4YTs8ZyBpZD0iZzc5MzIiIHRyYW5zZm9ybT0idHJhbnNsYXRlKDAuMDY0NjMzLDAuMDY1MzI3ODcpIj4mI3hhOwk8dGl0bGUgaWQ9InRpdGxlNzkwNyI+UGFnZS0xPC90aXRsZT4mI3hhOwk8ZyBpZD0iZ3JvdXA3NjUzLTEiIHRyYW5zZm9ybT0idHJhbnNsYXRlKDAuMzEwMzY3LC0wLjMxMDM2NykiPiYjeGE7CQk8dGl0bGUgaWQ9InRpdGxlNzkwOSI+U2VydmVyICM0PC90aXRsZT4mI3hhOwkJPGcgaWQ9InNoYXBlNzY1NC0yIj4mI3hhOwkJCTx0aXRsZSBpZD0idGl0bGU3OTExIj5TaGVldC43NjU0PC90aXRsZT4mI3hhOwkJCSYjeGE7CQkJCTxwYXRoIGlkPSJwYXRoNzkxMyIgaW5rc2NhcGU6Y29ubmVjdG9yLWN1cnZhdHVyZT0iMCIgc3R5bGU9ImZpbGw6IzNGNTc2NTtzdHJva2U6IzNGNTc2NTtzdHJva2Utd2lkdGg6MC43NTtzdHJva2UtbGluZWNhcDpyb3VuZDtzdHJva2UtbGluZWpvaW46cm91bmQ7c3Ryb2tlLW1pdGVybGltaXQ6MzsiIGQ9IiAgICAgTTAsMC42MnY2Mi43NmgzOS4yMlYwLjYySDB6Ii8+JiN4YTsJCTwvZz4mI3hhOwkJPGcgaWQ9InNoYXBlNzY1NS00Ij4mI3hhOwkJCTx0aXRsZSBpZD0idGl0bGU3OTE2Ij5TaGVldC43NjU1PC90aXRsZT4mI3hhOwkJCSYjeGE7CQkJCTxwYXRoIGlkPSJwYXRoNzkxOCIgaW5rc2NhcGU6Y29ubmVjdG9yLWN1cnZhdHVyZT0iMCIgc3R5bGU9ImZpbGw6bm9uZTtzdHJva2U6I0ZGRkZGRjtzdHJva2Utd2lkdGg6MC42MjA3O3N0cm9rZS1saW5lY2FwOnJvdW5kO3N0cm9rZS1saW5lam9pbjpyb3VuZDtzdHJva2UtbWl0ZXJsaW1pdDozOyIgZD0iICAgICBNMCw2My4zOGgzOS4yMlYwLjYySDBWNjMuMzhMMCw2My4zOCIvPiYjeGE7CQk8L2c+JiN4YTsJCTxnIGlkPSJzaGFwZTc2NTYtNyIgdHJhbnNmb3JtPSJ0cmFuc2xhdGUoMjkuMzA3NywtMjYuNTE2NykiPiYjeGE7CQkJPHRpdGxlIGlkPSJ0aXRsZTc5MjEiPlNoZWV0Ljc2NTY8L3RpdGxlPiYjeGE7CQkJJiN4YTsJCQkJPHBhdGggaWQ9InBhdGg3OTIzIiBpbmtzY2FwZTpjb25uZWN0b3ItY3VydmF0dXJlPSIwIiBzdHlsZT0iZmlsbDojRkZGRkZGO3N0cm9rZTojRkZGRkZGO3N0cm9rZS13aWR0aDowLjc1O3N0cm9rZS1saW5lY2FwOnNxdWFyZTtzdHJva2UtbWl0ZXJsaW1pdDozOyIgZD0iICAgICBNNC43Niw2MC45N2MwLTEuMzUtMS4wOC0yLjQ1LTIuMzYtMi40NWMtMS4zMiwwLTIuNCwxLjEtMi40LDIuNDVjMCwxLjMxLDEuMDgsMi40MSwyLjQsMi40MUMzLjY4LDYzLjM4LDQuNzYsNjIuMjgsNC43Niw2MC45N3oiLz4mI3hhOwkJPC9nPiYjeGE7CQk8ZyBpZD0ic2hhcGU3NjU3LTkiIHRyYW5zZm9ybT0idHJhbnNsYXRlKDE0Ljk1MzcsLTEwLjI1NTMpIj4mI3hhOwkJCTx0aXRsZSBpZD0idGl0bGU3OTI2Ij5TaGVldC43NjU3PC90aXRsZT4mI3hhOwkJCTxwYXRoIGlkPSJwYXRoNzkyOCIgaW5rc2NhcGU6Y29ubmVjdG9yLWN1cnZhdHVyZT0iMCIgc3R5bGU9ImZpbGw6I0ZGRkZGRjsiIGQ9Ik0wLDYzLjM4aDE5LjExdi0xLjZIMFY2My4zOHogTTAsNTguNmgxOS4xMSAgICAgdi0xLjU1SDBWNTguNnogTTAsNTMuODZoMTkuMTF2LTEuNTlIMFY1My44NnoiLz4mI3hhOwkJPC9nPiYjeGE7CTwvZz4mI3hhOzwvZz4mI3hhOzwvc3ZnPg==;" vertex="1" parent="1">
          <mxGeometry x="320.9999999999999" y="50" width="40" height="64" as="geometry" />
        </mxCell>
        <mxCell id="8CXosc1XJb84E6_PZDKH-19" value="" style="fontColor=#0066CC;verticalAlign=top;verticalLabelPosition=bottom;labelPosition=center;align=center;html=1;outlineConnect=0;fillColor=#CCCCCC;strokeColor=#6881B3;gradientColor=none;gradientDirection=north;strokeWidth=2;shape=mxgraph.networks.security_camera;" vertex="1" parent="1">
          <mxGeometry x="551" y="30" width="40" height="30" as="geometry" />
        </mxCell>
        <mxCell id="8CXosc1XJb84E6_PZDKH-20" value="" style="fontColor=#0066CC;verticalAlign=top;verticalLabelPosition=bottom;labelPosition=center;align=center;html=1;outlineConnect=0;fillColor=#CCCCCC;strokeColor=#6881B3;gradientColor=none;gradientDirection=north;strokeWidth=2;shape=mxgraph.networks.security_camera;" vertex="1" parent="1">
          <mxGeometry x="611" y="30" width="40" height="30" as="geometry" />
        </mxCell>
        <mxCell id="8CXosc1XJb84E6_PZDKH-21" value="" style="fontColor=#0066CC;verticalAlign=top;verticalLabelPosition=bottom;labelPosition=center;align=center;html=1;outlineConnect=0;fillColor=#CCCCCC;strokeColor=#6881B3;gradientColor=none;gradientDirection=north;strokeWidth=2;shape=mxgraph.networks.security_camera;" vertex="1" parent="1">
          <mxGeometry x="671" y="30" width="40" height="30" as="geometry" />
        </mxCell>
        <mxCell id="8CXosc1XJb84E6_PZDKH-22" value="" style="fontColor=#0066CC;verticalAlign=top;verticalLabelPosition=bottom;labelPosition=center;align=center;html=1;outlineConnect=0;fillColor=#CCCCCC;strokeColor=#6881B3;gradientColor=none;gradientDirection=north;strokeWidth=2;shape=mxgraph.networks.security_camera;" vertex="1" parent="1">
          <mxGeometry x="551" y="84" width="40" height="30" as="geometry" />
        </mxCell>
        <mxCell id="8CXosc1XJb84E6_PZDKH-23" value="" style="fontColor=#0066CC;verticalAlign=top;verticalLabelPosition=bottom;labelPosition=center;align=center;html=1;outlineConnect=0;fillColor=#CCCCCC;strokeColor=#6881B3;gradientColor=none;gradientDirection=north;strokeWidth=2;shape=mxgraph.networks.security_camera;" vertex="1" parent="1">
          <mxGeometry x="611" y="84" width="40" height="30" as="geometry" />
        </mxCell>
        <mxCell id="8CXosc1XJb84E6_PZDKH-24" value="" style="fontColor=#0066CC;verticalAlign=top;verticalLabelPosition=bottom;labelPosition=center;align=center;html=1;outlineConnect=0;fillColor=#CCCCCC;strokeColor=#6881B3;gradientColor=none;gradientDirection=north;strokeWidth=2;shape=mxgraph.networks.security_camera;" vertex="1" parent="1">
          <mxGeometry x="671" y="84" width="40" height="30" as="geometry" />
        </mxCell>
        <mxCell id="8CXosc1XJb84E6_PZDKH-26" value="10.50.16.0/20" style="text;strokeColor=none;align=center;fillColor=none;html=1;verticalAlign=middle;whiteSpace=wrap;rounded=0;" vertex="1" parent="1">
          <mxGeometry x="601" y="131" width="60" height="30" as="geometry" />
        </mxCell>
        <mxCell id="8CXosc1XJb84E6_PZDKH-27" value="SerÃ¡ necessÃ¡rio liberar as portas TCP/443&lt;br&gt;TCP-80&lt;br&gt;TCP/22 e redirecionar este trÃ¡fego para o host&amp;nbsp;10.50.16.70&lt;br&gt;Liberar conexÃ£o com origem nas redes da PF e da Hex." style="text;strokeColor=none;align=center;fillColor=none;html=1;verticalAlign=middle;whiteSpace=wrap;rounded=0;" vertex="1" parent="1">
          <mxGeometry x="330" y="290" width="140" height="80" as="geometry" />
        </mxCell>
        <mxCell id="8CXosc1XJb84E6_PZDKH-28" value="" style="shape=flexArrow;endArrow=classic;html=1;rounded=0;" edge="1" parent="1" target="8CXosc1XJb84E6_PZDKH-29">
          <mxGeometry width="50" height="50" relative="1" as="geometry">
            <mxPoint x="291" y="80" as="sourcePoint" />
            <mxPoint x="211" y="80" as="targetPoint" />
          </mxGeometry>
        </mxCell>
        <mxCell id="8CXosc1XJb84E6_PZDKH-29" value="O servidor Findface hospeda a aplicaÃ§Ã£o que Ã© acessada via web nas portas 80 e 443&lt;br&gt;&lt;br&gt;A porta 22 Ã© necessÃ¡ria para conexÃ£o via ssh para ajustes de configuraÃ§Ã£o e suporte." style="text;strokeColor=none;align=center;fillColor=none;html=1;verticalAlign=middle;whiteSpace=wrap;rounded=0;" vertex="1" parent="1">
          <mxGeometry x="34" y="15.5" width="140" height="133" as="geometry" />
        </mxCell>
        <mxCell id="8CXosc1XJb84E6_PZDKH-35" style="edgeStyle=orthogonalEdgeStyle;rounded=0;orthogonalLoop=1;jettySize=auto;html=1;entryX=0.836;entryY=0.228;entryDx=0;entryDy=0;shape=flexArrow;fillColor=#e51400;strokeColor=#B20000;entryPerimeter=0;exitX=0;exitY=0.75;exitDx=0;exitDy=0;" edge="1" parent="1" source="8CXosc1XJb84E6_PZDKH-62" target="8CXosc1XJb84E6_PZDKH-11">
          <mxGeometry relative="1" as="geometry">
            <mxPoint x="790" y="420" as="sourcePoint" />
            <Array as="points">
              <mxPoint x="769" y="437" />
            </Array>
          </mxGeometry>
        </mxCell>
        <mxCell id="8CXosc1XJb84E6_PZDKH-63" style="edgeStyle=orthogonalEdgeStyle;rounded=0;orthogonalLoop=1;jettySize=auto;html=1;exitX=0;exitY=0.75;exitDx=0;exitDy=0;" edge="1" parent="1" source="8CXosc1XJb84E6_PZDKH-31" target="8CXosc1XJb84E6_PZDKH-62">
          <mxGeometry relative="1" as="geometry" />
        </mxCell>
        <mxCell id="8CXosc1XJb84E6_PZDKH-31" value="&lt;b&gt;&lt;font style=&quot;font-size: 14px;&quot;&gt;REDE LOCAL POLICIA FEDERAL AEROPORTO&lt;/font&gt;&lt;/b&gt;" style="rounded=1;whiteSpace=wrap;html=1;labelPosition=center;verticalLabelPosition=bottom;align=center;verticalAlign=top;fillColor=#fad7ac;strokeColor=#b46504;" vertex="1" parent="1">
          <mxGeometry x="890" y="250" width="180" height="210" as="geometry" />
        </mxCell>
        <mxCell id="8CXosc1XJb84E6_PZDKH-33" value="" style="verticalLabelPosition=bottom;sketch=0;aspect=fixed;html=1;verticalAlign=top;strokeColor=none;align=center;outlineConnect=0;shape=mxgraph.citrix.desktop;" vertex="1" parent="1">
          <mxGeometry x="952.76" y="280" width="54.49" height="60" as="geometry" />
        </mxCell>
        <mxCell id="8CXosc1XJb84E6_PZDKH-34" value="A PolÃ­cia Federal acessa o servidor Findface atravÃ©s da rede local que fica no Aeroporto" style="text;strokeColor=none;align=center;fillColor=none;html=1;verticalAlign=middle;whiteSpace=wrap;rounded=0;" vertex="1" parent="1">
          <mxGeometry x="910" y="170" width="140" height="80" as="geometry" />
        </mxCell>
        <mxCell id="8CXosc1XJb84E6_PZDKH-37" value="&lt;span style=&quot;background-color: rgb(251, 251, 251);&quot;&gt;ConexÃ£o&lt;/span&gt;&lt;span style=&quot;background-color: rgb(255, 255, 255);&quot;&gt; via web browser atravÃ©s de VPN http://10.50.16.70&lt;/span&gt;" style="text;strokeColor=none;align=center;fillColor=none;html=1;verticalAlign=middle;whiteSpace=wrap;rounded=0;" vertex="1" parent="1">
          <mxGeometry x="642" y="370" width="69" height="50" as="geometry" />
        </mxCell>
        <mxCell id="8CXosc1XJb84E6_PZDKH-38" value="A Hex precisa de conexÃ£o ao servidor Findface no protocolo TCP nas portas 80, 443 e 22, para instalaÃ§Ã£o de licenÃ§a, parametrizaÃ§Ã£o da aplicaÃ§Ã£o e fornecimento de suporte." style="text;strokeColor=none;align=center;fillColor=none;html=1;verticalAlign=middle;whiteSpace=wrap;rounded=0;" vertex="1" parent="1">
          <mxGeometry x="734.49" y="600" width="140" height="80" as="geometry" />
        </mxCell>
        <mxCell id="8CXosc1XJb84E6_PZDKH-39" value="A PolÃ­cia Federal acessa o servidor Findface atravÃ©s da rede da sede." style="text;strokeColor=none;align=center;fillColor=none;html=1;verticalAlign=middle;whiteSpace=wrap;rounded=0;" vertex="1" parent="1">
          <mxGeometry x="234" y="701" width="140" height="80" as="geometry" />
        </mxCell>
        <mxCell id="8CXosc1XJb84E6_PZDKH-40" value="&lt;span style=&quot;background-color: rgb(251, 251, 251);&quot;&gt;ConexÃ£o&lt;/span&gt;&lt;span style=&quot;background-color: rgb(255, 255, 255);&quot;&gt; via web browser atravÃ©s de VPN http://10.50.16.70&lt;/span&gt;" style="text;strokeColor=none;align=center;fillColor=none;html=1;verticalAlign=middle;whiteSpace=wrap;rounded=0;" vertex="1" parent="1">
          <mxGeometry x="244" y="500" width="130" height="50" as="geometry" />
        </mxCell>
        <mxCell id="8CXosc1XJb84E6_PZDKH-48" style="edgeStyle=orthogonalEdgeStyle;rounded=0;orthogonalLoop=1;jettySize=auto;html=1;exitX=0.5;exitY=1;exitDx=0;exitDy=0;" edge="1" parent="1" source="8CXosc1XJb84E6_PZDKH-27" target="8CXosc1XJb84E6_PZDKH-27">
          <mxGeometry relative="1" as="geometry" />
        </mxCell>
        <mxCell id="8CXosc1XJb84E6_PZDKH-52" value="LEGENDA" style="text;strokeColor=none;align=center;fillColor=none;html=1;verticalAlign=middle;whiteSpace=wrap;rounded=0;fontSize=13;fontStyle=1" vertex="1" parent="1">
          <mxGeometry x="520" y="805" width="60" height="30" as="geometry" />
        </mxCell>
        <mxCell id="8CXosc1XJb84E6_PZDKH-55" style="edgeStyle=orthogonalEdgeStyle;rounded=0;orthogonalLoop=1;jettySize=auto;html=1;shape=flexArrow;fillColor=#e51400;strokeColor=#B20000;width=9.411764705882353;endSize=8.505882352941176;" edge="1" parent="1">
          <mxGeometry relative="1" as="geometry">
            <mxPoint x="515" y="860" as="sourcePoint" />
            <mxPoint x="585" y="860" as="targetPoint" />
          </mxGeometry>
        </mxCell>
        <mxCell id="8CXosc1XJb84E6_PZDKH-56" value="Link VPN" style="text;strokeColor=none;align=center;fillColor=none;html=1;verticalAlign=middle;whiteSpace=wrap;rounded=0;" vertex="1" parent="1">
          <mxGeometry x="520" y="870" width="60" height="30" as="geometry" />
        </mxCell>
        <mxCell id="8CXosc1XJb84E6_PZDKH-59" value="" style="endArrow=classic;html=1;rounded=0;exitX=1;exitY=0.25;exitDx=0;exitDy=0;" edge="1" parent="1" source="8CXosc1XJb84E6_PZDKH-18">
          <mxGeometry width="50" height="50" relative="1" as="geometry">
            <mxPoint x="381" y="70.5" as="sourcePoint" />
            <mxPoint x="551" y="66" as="targetPoint" />
          </mxGeometry>
        </mxCell>
        <mxCell id="8CXosc1XJb84E6_PZDKH-60" value="Findface acessa o streaming das cÃ¢meras via rtsp na porta 554." style="text;strokeColor=none;align=center;fillColor=none;html=1;verticalAlign=middle;whiteSpace=wrap;rounded=0;" vertex="1" parent="1">
          <mxGeometry x="401" y="70.5" width="130" height="50" as="geometry" />
        </mxCell>
        <mxCell id="8CXosc1XJb84E6_PZDKH-62" value="" style="shape=image;verticalLabelPosition=middle;labelBackgroundColor=#ffffff;verticalAlign=middle;aspect=fixed;imageAspect=0;image=data:image/svg+xml,PHN2ZyB4bWxuczpjYz0iaHR0cDovL2NyZWF0aXZlY29tbW9ucy5vcmcvbnMjIiB4bWxuczpkYz0iaHR0cDovL3B1cmwub3JnL2RjL2VsZW1lbnRzLzEuMS8iIHhtbG5zOmlua3NjYXBlPSJodHRwOi8vd3d3Lmlua3NjYXBlLm9yZy9uYW1lc3BhY2VzL2lua3NjYXBlIiB4bWxuczpyZGY9Imh0dHA6Ly93d3cudzMub3JnLzE5OTkvMDIvMjItcmRmLXN5bnRheC1ucyMiIHhtbG5zOnNvZGlwb2RpPSJodHRwOi8vc29kaXBvZGkuc291cmNlZm9yZ2UubmV0L0RURC9zb2RpcG9kaS0wLmR0ZCIgeG1sbnM6c3ZnPSJodHRwOi8vd3d3LnczLm9yZy8yMDAwL3N2ZyIgeG1sbnM9Imh0dHA6Ly93d3cudzMub3JnLzIwMDAvc3ZnIiB4bWxuczp4bGluaz0iaHR0cDovL3d3dy53My5vcmcvMTk5OS94bGluayIgdmVyc2lvbj0iMS4xIiBpZD0ic3ZnMTU3MTE1IiBpbmtzY2FwZTp2ZXJzaW9uPSIwLjkyLjMgKDI0MDU1NDYsIDIwMTgtMDMtMTEpIiBzb2RpcG9kaTpkb2NuYW1lPSJmaXJld2FsbF8xLnN2ZyIgeD0iMHB4IiB5PSIwcHgiIHZpZXdCb3g9IjAgMCA3MS44OCA1Ni40NiIgc3R5bGU9ImVuYWJsZS1iYWNrZ3JvdW5kOm5ldyAwIDAgNzEuODggNTYuNDY7IiB4bWw6c3BhY2U9InByZXNlcnZlIj4mI3hhOzxzb2RpcG9kaTpuYW1lZHZpZXcgYm9yZGVyY29sb3I9IiM2NjY2NjYiIGJvcmRlcm9wYWNpdHk9IjEiIGZpdC1tYXJnaW4tYm90dG9tPSIwIiBmaXQtbWFyZ2luLWxlZnQ9IjAiIGZpdC1tYXJnaW4tcmlnaHQ9IjAiIGZpdC1tYXJnaW4tdG9wPSIwIiBncmlkdG9sZXJhbmNlPSIxMCIgZ3VpZGV0b2xlcmFuY2U9IjEwIiBpZD0ibmFtZWR2aWV3MTU3MTE3IiBpbmtzY2FwZTpjdXJyZW50LWxheWVyPSJzdmcxNTcxMTUiIGlua3NjYXBlOmN4PSI0Ny45MTgyNCIgaW5rc2NhcGU6Y3k9IjM3LjYzNzY0NyIgaW5rc2NhcGU6cGFnZW9wYWNpdHk9IjAiIGlua3NjYXBlOnBhZ2VzaGFkb3c9IjIiIGlua3NjYXBlOndpbmRvdy1oZWlnaHQ9IjEwMTciIGlua3NjYXBlOndpbmRvdy1tYXhpbWl6ZWQ9IjEiIGlua3NjYXBlOndpbmRvdy13aWR0aD0iMTkyMCIgaW5rc2NhcGU6d2luZG93LXg9Ii04IiBpbmtzY2FwZTp3aW5kb3cteT0iLTgiIGlua3NjYXBlOnpvb209IjExLjIxODI2MSIgb2JqZWN0dG9sZXJhbmNlPSIxMCIgcGFnZWNvbG9yPSIjZmZmZmZmIiBzaG93Z3JpZD0iZmFsc2UiPiYjeGE7CTwvc29kaXBvZGk6bmFtZWR2aWV3PiYjeGE7PGcgaWQ9ImcxNTcxMTMiIHRyYW5zZm9ybT0idHJhbnNsYXRlKC0wLjc1LC0wLjc0OTI4MjEyKSI+JiN4YTsJPHRpdGxlIGlkPSJ0aXRsZTE1NzA5OCI+UGFnZS0xPC90aXRsZT4mI3hhOwk8ZyBpZD0iZ3JvdXA5NTM4LTEiIHRyYW5zZm9ybT0idHJhbnNsYXRlKDAuNzUsLTAuNzUpIj4mI3hhOwkJPHRpdGxlIGlkPSJ0aXRsZTE1NzEwMCI+RmlyZXdhbGwgIzE8L3RpdGxlPiYjeGE7CQk8ZyBpZD0ic2hhcGU5NTM5LTIiIHRyYW5zZm9ybT0idHJhbnNsYXRlKDAsLTcuNDg3MDllLTQpIj4mI3hhOwkJCTx0aXRsZSBpZD0idGl0bGUxNTcxMDIiPnBhdGgxNTI5MS4zMjI1MjwvdGl0bGU+JiN4YTsJCQk8cGF0aCBpZD0icGF0aDE1NzEwNCIgaW5rc2NhcGU6Y29ubmVjdG9yLWN1cnZhdHVyZT0iMCIgc3R5bGU9ImZpbGw6IzQzNTY3MDsiIGQ9Ik0yMS45MSwxNy42MmMtMC41MSwwLjUxLTAuNzYsMS4xMS0wLjc2LDEuODEgICAgIHY1LjEzYzAsMC43LDAuMjUsMS4zLDAuNzYsMS44MWMwLjUxLDAuNSwxLjExLDAuNzYsMS44LDAuNzZoMTEuMzRjMC4yNy0yLjY0LDIuNjMtNC41Nyw1LjI4LTQuM2MwLjk1LDAuMSwxLjg0LDAuNDcsMi41NywxLjA4ICAgICBjMC44Ni0yLjIyLDEuNDQtNC41NywxLjc0LTcuMDVIMjMuNzFDMjMuMDIsMTYuODYsMjIuNDIsMTcuMTEsMjEuOTEsMTcuNjJ6IE0xMy40NSw0Ny43SDIuNTdjLTAuNywwLTEuMywwLjI1LTEuODEsMC43NiAgICAgQzAuMjUsNDguOTcsMCw0OS41NywwLDUwLjI2djUuMTRjMCwwLjY5LDAuMjUsMS4yOSwwLjc2LDEuOHMxLjExLDAuNzYsMS44MSwwLjc2aDEwLjg4YzAuNjksMCwxLjI5LTAuMjUsMS44LTAuNzYgICAgIHMwLjc2LTEuMTEsMC43Ni0xLjh2LTUuMTRjMC0wLjY5LTAuMjUtMS4yOS0wLjc2LTEuOEMxNC43NSw0Ny45NSwxNC4xNCw0Ny43LDEzLjQ1LDQ3Ljd6IE0yLjU3LDQyLjU2aDE4LjU4ICAgICBjMC42OSwwLDEuMjktMC4yNSwxLjgtMC43NmMwLjUxLTAuNSwwLjc2LTEuMTEsMC43Ni0xLjh2LTUuMTNjMC0wLjctMC4yNS0xLjMtMC43Ni0xLjgxYy0wLjUxLTAuNTEtMS4xMS0wLjc2LTEuOC0wLjc2SDIuNTcgICAgIGMtMC43LDAtMS4zLDAuMjUtMS44MSwwLjc2UzAsMzQuMTcsMCwzNC44N1Y0MGMwLDAuNjksMC4yNSwxLjMsMC43NiwxLjhDMS4yNyw0Mi4zMSwxLjg3LDQyLjU2LDIuNTcsNDIuNTZ6IE0zMi4yNiw1Mi43NyAgICAgTDMyLjI2LDUyLjc3Yy0wLjkyLTEuNTctMS41Ny0zLjI4LTEuOTEtNS4wN2gtNi42NGMtMC42OSwwLTEuMjksMC4yNS0xLjgsMC43NnMtMC43NiwxLjExLTAuNzYsMS44djUuMTQgICAgIGMwLDAuNjksMC4yNSwxLjI5LDAuNzYsMS44czEuMTEsMC43NiwxLjgsMC43NmgxMy4xQzM0LjgzLDU2LjMsMzMuMzIsNTQuNTcsMzIuMjYsNTIuNzd6IE00Ny4yMiw5LjQ1ICAgICBjMS41MS0wLjgzLDMuMzUtMC44LDQuODMsMC4wOWMwLjQsMC4yNCwwLjg4LDAuNTUsMS41MSwwLjk4YzAsMC4wMSwwLjAxLDAuMDEsMC4wMSwwLjAxYzAuMjksMC4yLDAuNzYsMC41NCwxLjcxLDEuMzFoMTQuMDEgICAgIGMwLjcsMCwxLjMxLTAuMjYsMS44Mi0wLjc3czAuNzctMS4xMiwwLjc3LTEuODJWNC4wOGMwLTAuNy0wLjI2LTEuMy0wLjc3LTEuODFDNzAuNiwxLjc2LDY5Ljk5LDEuNSw2OS4yOSwxLjVINDguNDQgICAgIGMtMC43LDAtMS4zMSwwLjI2LTEuODIsMC43N3MtMC43NywxLjExLTAuNzcsMS44MXY1LjE3YzAsMC4zOSwwLjA4LDAuNzQsMC4yMywxLjA3QzQ2LjQyLDkuOTgsNDYuOCw5LjY4LDQ3LjIyLDkuNDV6ICAgICAgTTIuNTcsMjcuMTNoMTAuODhjMC42OSwwLDEuMjktMC4yNiwxLjgtMC43N2MwLjUxLTAuNSwwLjc2LTEuMSwwLjc2LTEuOHYtNS4xM2MwLTAuNy0wLjI1LTEuMy0wLjc2LTEuODFzLTEuMTEtMC43Ni0xLjgtMC43NiAgICAgSDIuNTdjLTAuNywwLTEuMywwLjI1LTEuODEsMC43NkMwLjI1LDE4LjEzLDAsMTguNzMsMCwxOS40M3Y1LjEzYzAsMC43LDAuMjUsMS4zLDAuNzYsMS44QzEuMjcsMjYuODcsMS44NywyNy4xMywyLjU3LDI3LjEzeiAgICAgIE0zMS40MSwxMS43N2g2LjljMC43LDAsMS4zLTAuMjYsMS44LTAuNzdjMC41MS0wLjUsMC43Ny0xLjEsMC43Ny0xLjhWNC4wN2MwLTAuNy0wLjI2LTEuMy0wLjc3LTEuODEgICAgIGMtMC41LTAuNTEtMS4xLTAuNzYtMS44LTAuNzZoLTYuOWMtMC42OSwwLTEuMjksMC4yNS0xLjgsMC43NnMtMC43NiwxLjExLTAuNzYsMS44MVY5LjJjMCwwLjcsMC4yNSwxLjMsMC43NiwxLjgxICAgICBDMzAuMTIsMTEuNTEsMzAuNzIsMTEuNzcsMzEuNDEsMTEuNzd6IE0yLjU3LDExLjc3aDE4LjU4YzAuNjksMCwxLjI5LTAuMjYsMS44LTAuNzdjMC41MS0wLjUsMC43Ni0xLjEsMC43Ni0xLjhWNC4wNyAgICAgYzAtMC43LTAuMjUtMS4zLTAuNzYtMS44MWMtMC41MS0wLjUxLTEuMTEtMC43Ni0xLjgtMC43NkgyLjU3Yy0wLjcsMC0xLjMsMC4yNS0xLjgxLDAuNzZTMCwzLjM3LDAsNC4wN1Y5LjIgICAgIGMwLDAuNywwLjI1LDEuMywwLjc2LDEuODFDMS4yNywxMS41MSwxLjg3LDExLjc3LDIuNTcsMTEuNzd6Ii8+JiN4YTsJCTwvZz4mI3hhOwkJPGcgaWQ9InNoYXBlOTU0MC00IiB0cmFuc2Zvcm09InRyYW5zbGF0ZSgzNC40OTE1KSI+JiN4YTsJCQk8dGl0bGUgaWQ9InRpdGxlMTU3MTA3Ij5wYXRoMTUyOTMuMzIyNTM8L3RpdGxlPiYjeGE7CQkJPHBhdGggaWQ9InBhdGgxNTcxMDkiIGlua3NjYXBlOmNvbm5lY3Rvci1jdXJ2YXR1cmU9IjAiIHN0eWxlPSJmaWxsOiNGRjAwMDA7IiBkPSJNMTAuODYsNTcuOTZjLTQuNDUtMi41MS03LjQzLTUuMDUtOC45NC03LjYzICAgICBDMC40LDQ3Ljc1LDAsNDQuNzYsMC43MSw0MS4zNGMwLjMyLTEuMzUsMS4xNC0zLjUyLDIuNDYtNi41MmMxLjMyLTIuOTksMi4wNS01LjM5LDIuMTgtNy4yYzEuMjksMi4zOSwyLjAzLDQuNzcsMi4yMiw3LjE1ICAgICBjNC45LTYuMDUsNy40NC0xMy4xLDcuNjQtMjEuMTZjMC4zMiwwLjIsMC43NCwwLjQ3LDEuMjUsMC44MmMwLjUyLDAuMzYsMS40NywxLjExLDIuODUsMi4yN2MxLjM5LDEuMTYsMi42MSwyLjM3LDMuNjcsMy42MyAgICAgYzEuMDcsMS4yNSwyLjA2LDIuODUsMyw0Ljc4YzAuOTMsMS45MywxLjUsMy44NywxLjY5LDUuOGMwLjUxLTEuMTYsMC44NC0yLjQ1LDAuOTctMy44N2MwLjEzLTEuNDEtMC4wNC0yLjc0LTAuNDktMy45NiAgICAgYzAuNTIsMC4zOSwxLjE5LDEuMDMsMi4wMywxLjkzYzAuODQsMC45MSwxLjc3LDIuMTMsMi44LDMuNjdjMS4wNSwxLjU3LDEuOTcsMy4yMiwyLjc2LDQuOTNjMC44LDEuNzQsMS4zMiwzLjY5LDEuNTQsNS44NSAgICAgYzAuMjMsMi4xNiwwLjA4LDQuMjUtMC40Myw2LjI4Yy0wLjUyLDIuMDMtMS43MSw0LjEyLTMuNTgsNi4yOGMtMS44NywyLjE2LTQuMzgsNC4xNC03LjUzLDUuOTRjMi4xMi00LjI1LDIuNTQtOC44NCwxLjI1LTEzLjc3ICAgICBzLTMuODMtOC43MS03LjYzLTExLjM1YzAuMzIsMS40MiwwLjE0LDMuNzUtMC41Myw3Yy0wLjY4LDMuMjYtMS43Niw1LjcyLTMuMjQsNy40YzAuMjYtMi4wNywwLjMyLTMuNzQsMC4xOS01LjAzICAgICBjLTAuMTMtMS4yOS0wLjMyLTIuMjUtMC41OC0yLjlsLTAuNDgtMC44N2MtMC4zOSwyLjMyLTEuMzksNC42NC0yLjk5LDYuOTZjLTAuODQsMS4yMy0xLjQ3LDIuMzUtMS44OSwzLjM4ICAgICBjLTAuNDIsMS4wMy0wLjU4LDIuMzUtMC40OCwzLjk2QzkuNDYsNTQuMzYsOS45NSw1Ni4xLDEwLjg2LDU3Ljk2eiIvPiYjeGE7CQk8L2c+JiN4YTsJPC9nPiYjeGE7PC9nPiYjeGE7PC9zdmc+;labelPosition=left;align=right;" vertex="1" parent="1">
          <mxGeometry x="768.49" y="380" width="72" height="56" as="geometry" />
        </mxCell>
        <mxCell id="8CXosc1XJb84E6_PZDKH-64" value="" style="verticalLabelPosition=bottom;sketch=0;aspect=fixed;html=1;verticalAlign=top;strokeColor=none;align=center;outlineConnect=0;shape=mxgraph.citrix.desktop;" vertex="1" parent="1">
          <mxGeometry x="952.76" y="378" width="54.49" height="60" as="geometry" />
        </mxCell>
      </root>
    </mxGraphModel>
  </diagram>
</mxfile>
